# xmcd
#
# Track frame offsets:
#	150
#	18520
#	29533
#	45754
#	56205
#	68825
#	81821
#	98191
#	110932
#	126841
#	147164
#	163206
#	178829
#	193682
#	207368
#	221978
#	234551
#	251855
#	266612
#	277200
#	287862
#	304953
#
# Disc length: 4305 seconds
#
# Revision: 2
# Processed by: cddbd v1.5.1PL0 Copyright (c) Steve Scherf et al.
# Submitted via: MusicWizard 7.2.0
#
DISCID=6610cf16
DTITLE=Aretha Franklin - Greatest Hits - Disc 1 [CD 1/2)
DYEAR=2001
DGENRE=Soul
TTITLE0=I Knew You Were Waiting
TTITLE1=Respect
TTITLE2=I Say A Little Prayer
TTITLE3=Think
TTITLE4=Like A Natural Woman
TTITLE5=I Never Loved A Man
TTITLE6=You Are All I Need To Get By
TTITLE7=Chain Of Fools
TTITLE8=Spanish Harlem
TTITLE9=Angel
TTITLE10=Let It Be
TTITLE11=Until You Come Back To Me
TTITLE12=Son Of A Preacher Man
TTITLE13=Don't Play That Song
TTITLE14=Rock Steady
TTITLE15=See Saw
TTITLE16=Ain't Nothing Like The Real Thing
TTITLE17=Do Right Woman, Do Right Man
TTITLE18=Save Me
TTITLE19=The House That Jack Built
TTITLE20=People Get Ready
TTITLE21=Day Dreaming
EXTD=ID3G:   0
EXTT0=
EXTT1=
EXTT2=
EXTT3=
EXTT4=
EXTT5=
EXTT6=
EXTT7=
EXTT8=
EXTT9=
EXTT10=
EXTT11=
EXTT12=
EXTT13=
EXTT14=
EXTT15=
EXTT16=
EXTT17=
EXTT18=
EXTT19=
EXTT20=
EXTT21=
PLAYORDER=
